<?xml version="1.0" encoding="utf-8"?><svg xmlns="http://www.w3.org/2000/svg" xmlns:xlink="http://www.w3.org/1999/xlink"><symbol viewBox="0 0 13 8" id="svg--arrow-bottom" xmlns="http://www.w3.org/2000/svg"><path d="M11.467 0 6.5 4.947 1.533 0 0 1.527 6.5 8 13 1.527 11.467 0Z"/></symbol><symbol viewBox="0 0 30 25" id="svg--basket" xmlns="http://www.w3.org/2000/svg"><path d="M29.01 8.327a2.035 2.035 0 0 0-1.601-.768h-5.671L18.663.518a.863.863 0 1 0-1.581.69l2.773 6.351H9.592l2.773-6.35a.863.863 0 0 0-1.581-.691L7.709 7.559H2.038c-.629 0-1.212.28-1.6.768a1.986 1.986 0 0 0-.387 1.69l3.028 13.227a2.021 2.021 0 0 0 1.987 1.57h19.315c.958 0 1.775-.646 1.987-1.57l3.028-13.228a1.986 1.986 0 0 0-.386-1.69Zm-4.63 14.76H5.067a.309.309 0 0 1-.305-.228L1.733 9.631a.263.263 0 0 1 .053-.229.313.313 0 0 1 .252-.117h4.917l-.226.517a.863.863 0 0 0 1.581.69l.528-1.207h11.77l.528 1.208a.863.863 0 1 0 1.582-.69l-.226-.518h4.917c.137 0 .216.073.251.117a.263.263 0 0 1 .054.23l-3.028 13.227a.309.309 0 0 1-.305.229Z"/></symbol><symbol viewBox="0 0 28 25" id="svg--favorite" xmlns="http://www.w3.org/2000/svg"><path d="M14 25c-.399 0-.783-.145-1.082-.408a325.333 325.333 0 0 0-3.184-2.748l-.005-.005c-2.821-2.412-5.257-4.496-6.952-6.548C.882 12.997 0 10.821 0 8.445c0-2.309.789-4.44 2.221-5.998C3.671.869 5.66 0 7.822 0c1.616 0 3.096.513 4.4 1.524A9.02 9.02 0 0 1 14 3.388a9.021 9.021 0 0 1 1.779-1.864C17.082.513 18.562 0 20.179 0c2.162 0 4.15.869 5.6 2.447C27.211 4.006 28 6.136 28 8.445c0 2.376-.882 4.552-2.777 6.846-1.695 2.052-4.13 4.136-6.951 6.548a321.28 321.28 0 0 0-3.19 2.753A1.64 1.64 0 0 1 14 25ZM7.822 1.646c-1.699 0-3.26.68-4.395 1.916C2.275 4.817 1.64 6.551 1.64 8.445c0 1.999.74 3.786 2.4 5.796 1.604 1.942 3.99 3.983 6.752 6.346l.006.004c.965.826 2.06 1.762 3.2 2.762a383.634 383.634 0 0 1 3.21-2.767c2.763-2.362 5.148-4.403 6.752-6.345 1.66-2.01 2.4-3.797 2.4-5.796 0-1.894-.635-3.628-1.787-4.883a5.897 5.897 0 0 0-4.395-1.916c-1.244 0-2.387.397-3.396 1.18-.9.698-1.525 1.58-1.893 2.198A1.026 1.026 0 0 1 14 5.53c-.368 0-.7-.19-.89-.507-.366-.618-.993-1.5-1.892-2.198-1.009-.783-2.152-1.18-3.396-1.18Z"/></symbol><symbol viewBox="0 0 22 25" id="svg--login" xmlns="http://www.w3.org/2000/svg"><path d="M10.718 12.043c1.654 0 3.087-.594 4.257-1.764 1.17-1.171 1.764-2.603 1.764-4.258 0-1.654-.593-3.086-1.764-4.257C13.805.594 12.372 0 10.718 0 9.063 0 7.63.593 6.46 1.764 5.29 2.934 4.696 4.367 4.696 6.02c0 1.655.594 3.087 1.764 4.258 1.171 1.17 2.604 1.764 4.258 1.764ZM7.496 2.8c.899-.898 1.952-1.335 3.222-1.335s2.323.437 3.221 1.335c.899.898 1.335 1.952 1.335 3.221 0 1.27-.436 2.323-1.335 3.222-.898.898-1.952 1.335-3.221 1.335-1.27 0-2.323-.437-3.222-1.335-.898-.899-1.335-1.952-1.335-3.222 0-1.269.437-2.323 1.335-3.221Zm13.757 16.424a14.887 14.887 0 0 0-.202-1.58 12.45 12.45 0 0 0-.389-1.588 7.846 7.846 0 0 0-.653-1.481 5.58 5.58 0 0 0-.984-1.284 4.341 4.341 0 0 0-1.415-.888 4.889 4.889 0 0 0-1.805-.327c-.255 0-.502.105-.979.415-.293.191-.636.413-1.02.657-.327.21-.77.405-1.318.582a5.239 5.239 0 0 1-1.614.26 5.242 5.242 0 0 1-1.613-.26c-.547-.177-.991-.373-1.318-.581-.38-.243-.723-.464-1.02-.658-.477-.31-.724-.415-.979-.415-.65 0-1.257.11-1.805.327a4.337 4.337 0 0 0-1.415.889 5.583 5.583 0 0 0-.984 1.283 7.856 7.856 0 0 0-.653 1.481A12.474 12.474 0 0 0 .7 17.644c-.1.56-.169 1.092-.203 1.58-.033.478-.05.975-.05 1.477 0 1.305.415 2.361 1.233 3.14.808.77 1.877 1.159 3.177 1.159h12.038c1.3 0 2.369-.39 3.177-1.159.818-.778 1.233-1.835 1.233-3.14 0-.504-.017-1.001-.05-1.477Zm-2.192 3.556c-.534.508-1.243.755-2.167.755H4.856c-.924 0-1.633-.247-2.167-.755-.523-.498-.778-1.179-.778-2.08 0-.468.016-.93.047-1.374.03-.436.091-.915.183-1.423.09-.502.205-.974.341-1.4a6.4 6.4 0 0 1 .532-1.205 4.14 4.14 0 0 1 .723-.948c.251-.24.568-.437.941-.585a3.37 3.37 0 0 1 1.154-.223 4.3 4.3 0 0 1 .29.176c.302.197.649.42 1.033.666.432.275.99.524 1.655.74.681.22 1.375.331 2.064.331.69 0 1.384-.111 2.064-.331.667-.216 1.224-.465 1.657-.74.393-.252.73-.47 1.031-.666.149-.096.24-.148.291-.175.421.01.81.086 1.154.222.373.148.69.345.941.585.269.257.512.576.723.948.222.39.401.796.532 1.205.137.427.252.898.342 1.4.091.51.153.988.183 1.423.031.442.047.905.047 1.375 0 .9-.255 1.58-.778 2.079Z"/></symbol><symbol viewBox="0 0 122 104" id="svg--logo" xmlns="http://www.w3.org/2000/svg"><path d="M60.5 0 29 18.19v36.378l31.5 18.19L92 54.568V18.19L60.5 0Zm24.537 50.59L60.453 64.752 35.916 50.59V22.168L60.5 7.958l24.584 14.21V50.59h-.047Z"/><path d="M79.163 25.437V47.32l-12.931 7.626V42.868H54.769v12.08L41.837 47.32V25.437l12.931-7.627v12.411h11.464v-12.41l12.931 7.626Zm-63.852 78.252h-3.653v-7.15H3.614v7.15H0V86.707h3.614v6.684h8.006v-6.684h3.653v16.982h.038Zm19.819 0H23.122V86.707H35.13v3.186h-8.394v3.575h8.239v3.187h-8.239v3.847h8.394v3.187Zm15.507.311c-2.565 0-4.741-.816-6.451-2.448-1.71-1.633-2.604-3.731-2.604-6.335 0-2.603.855-4.702 2.604-6.334 1.71-1.632 3.886-2.448 6.45-2.448 3.187 0 5.558 1.399 7.112 4.158l-3.109 1.515a5.12 5.12 0 0 0-1.632-1.787 4.33 4.33 0 0 0-2.37-.7c-1.555 0-2.837.544-3.809 1.594-1.01 1.049-1.515 2.37-1.515 4.002 0 1.632.505 2.954 1.515 4.003 1.01 1.049 2.293 1.593 3.809 1.593a4.33 4.33 0 0 0 2.37-.699c.739-.467 1.283-1.05 1.632-1.788l3.11 1.516C56.115 102.6 53.745 104 50.636 104Zm21.295-.311h-3.653V89.893h-4.974v-3.186h13.562v3.186h-4.935v13.796Zm19.781.311c-2.565 0-4.703-.816-6.373-2.487-1.672-1.671-2.526-3.77-2.526-6.296 0-2.565.854-4.663 2.526-6.295 1.67-1.671 3.808-2.487 6.373-2.487 2.565 0 4.702.816 6.373 2.487 1.671 1.632 2.526 3.77 2.526 6.334 0 2.565-.855 4.663-2.526 6.334-1.671 1.594-3.808 2.41-6.373 2.41Zm-3.731-4.78c.933 1.049 2.176 1.593 3.73 1.593 1.555 0 2.799-.544 3.731-1.593.933-1.05 1.438-2.37 1.438-4.003 0-1.632-.466-2.953-1.438-4.002-.932-1.05-2.215-1.594-3.73-1.594-1.555 0-2.798.544-3.731 1.594-.933 1.049-1.399 2.37-1.399 4.002 0 1.594.466 2.915 1.399 4.003Zm33.382 4.469h-4.158l-3.342-6.024h-2.642v6.024h-3.615V86.707h7.967c1.749 0 3.148.505 4.158 1.515 1.011 1.01 1.555 2.332 1.555 3.964 0 1.399-.35 2.526-1.089 3.38-.738.856-1.593 1.4-2.642 1.672l3.808 6.451Zm-6.334-9.21c.738 0 1.36-.195 1.826-.622.467-.427.7-.972.7-1.671 0-.7-.233-1.244-.7-1.671-.466-.427-1.088-.622-1.826-.622h-3.808v4.586h3.808Z"/></symbol><symbol viewBox="0 0 25 25" id="svg--search" xmlns="http://www.w3.org/2000/svg"><path d="M11.01 0C4.938 0 0 4.939 0 11.01c0 6.07 4.939 11.009 11.01 11.009 6.07 0 11.009-4.939 11.009-11.01C22.019 4.94 17.08 0 11.009 0Zm0 19.986c-4.95 0-8.977-4.027-8.977-8.977s4.027-8.976 8.976-8.976c4.95 0 8.977 4.027 8.977 8.976 0 4.95-4.027 8.977-8.977 8.977Z"/><path d="m24.702 23.265-5.827-5.826a1.016 1.016 0 1 0-1.437 1.437l5.827 5.826a1.012 1.012 0 0 0 1.437 0 1.016 1.016 0 0 0 0-1.437Z"/></symbol><symbol viewBox="0 0 26 25" id="svg--stars" xmlns="http://www.w3.org/2000/svg"><path d="M21.032 24.333 13 20.254l-8.032 4.08 1.534-8.64L0 9.574l8.981-1.26L13 .334l4.019 7.98L26 9.574l-6.502 6.12 1.534 8.64Z"/></symbol><symbol viewBox="0 0 26 24" id="svg--stars-empty" xmlns="http://www.w3.org/2000/svg"><path d="M21.032 24 13 19.92 4.968 24l1.534-8.64L0 9.241l8.981-1.26L13 0l4.019 7.981L26 9.241l-6.502 6.12L21.032 24ZM13 18.258l6.009 3.052-1.148-6.464 4.864-4.577-6.723-.943L13 3.364 9.998 9.326l-6.723.943 4.864 4.577L6.99 21.31 13 18.258Z"/></symbol></svg>